<mxfile host="app.diagrams.net" modified="2024-03-21T16:08:49.569Z" agent="Mozilla/5.0 (Macintosh; Intel Mac OS X 10_15_7) AppleWebKit/537.36 (KHTML, like Gecko) Chrome/122.0.0.0 Safari/537.36" etag="k7IAgICQoTRD11Fj5tby" version="24.0.7" type="github">
  <diagram name="Page-1" id="oEAZGj61iKcYDO0g3LSp">
    <mxGraphModel dx="954" dy="530" grid="1" gridSize="10" guides="1" tooltips="1" connect="1" arrows="1" fold="1" page="1" pageScale="1" pageWidth="1169" pageHeight="826" math="0" shadow="0">
      <root>
        <mxCell id="0" />
        <mxCell id="1" parent="0" />
        <mxCell id="yQLUCkZRIKrmV6NLwZtg-27" value="Film" style="swimlane;fontStyle=0;childLayout=stackLayout;horizontal=1;startSize=30;horizontalStack=0;resizeParent=1;resizeParentMax=0;resizeLast=0;collapsible=1;marginBottom=0;whiteSpace=wrap;html=1;" vertex="1" parent="1">
          <mxGeometry x="590" y="370" width="140" height="120" as="geometry" />
        </mxCell>
        <mxCell id="yQLUCkZRIKrmV6NLwZtg-28" value="Item 1" style="text;strokeColor=none;fillColor=none;align=left;verticalAlign=middle;spacingLeft=4;spacingRight=4;overflow=hidden;points=[[0,0.5],[1,0.5]];portConstraint=eastwest;rotatable=0;whiteSpace=wrap;html=1;" vertex="1" parent="yQLUCkZRIKrmV6NLwZtg-27">
          <mxGeometry y="30" width="140" height="30" as="geometry" />
        </mxCell>
        <mxCell id="yQLUCkZRIKrmV6NLwZtg-29" value="Item 2" style="text;strokeColor=none;fillColor=none;align=left;verticalAlign=middle;spacingLeft=4;spacingRight=4;overflow=hidden;points=[[0,0.5],[1,0.5]];portConstraint=eastwest;rotatable=0;whiteSpace=wrap;html=1;" vertex="1" parent="yQLUCkZRIKrmV6NLwZtg-27">
          <mxGeometry y="60" width="140" height="30" as="geometry" />
        </mxCell>
        <mxCell id="yQLUCkZRIKrmV6NLwZtg-30" value="Item 3" style="text;strokeColor=none;fillColor=none;align=left;verticalAlign=middle;spacingLeft=4;spacingRight=4;overflow=hidden;points=[[0,0.5],[1,0.5]];portConstraint=eastwest;rotatable=0;whiteSpace=wrap;html=1;" vertex="1" parent="yQLUCkZRIKrmV6NLwZtg-27">
          <mxGeometry y="90" width="140" height="30" as="geometry" />
        </mxCell>
        <mxCell id="yQLUCkZRIKrmV6NLwZtg-31" value="&lt;i&gt;}abstract&lt;/i&gt;&lt;br&gt;Content" style="swimlane;fontStyle=0;childLayout=stackLayout;horizontal=1;startSize=30;horizontalStack=0;resizeParent=1;resizeParentMax=0;resizeLast=0;collapsible=1;marginBottom=0;whiteSpace=wrap;html=1;" vertex="1" parent="1">
          <mxGeometry x="760" y="120" width="140" height="120" as="geometry" />
        </mxCell>
        <mxCell id="yQLUCkZRIKrmV6NLwZtg-32" value="# fsk: Enum" style="text;strokeColor=none;fillColor=none;align=left;verticalAlign=middle;spacingLeft=4;spacingRight=4;overflow=hidden;points=[[0,0.5],[1,0.5]];portConstraint=eastwest;rotatable=0;whiteSpace=wrap;html=1;" vertex="1" parent="yQLUCkZRIKrmV6NLwZtg-31">
          <mxGeometry y="30" width="140" height="30" as="geometry" />
        </mxCell>
        <mxCell id="yQLUCkZRIKrmV6NLwZtg-33" value="# titel:String" style="text;strokeColor=none;fillColor=none;align=left;verticalAlign=middle;spacingLeft=4;spacingRight=4;overflow=hidden;points=[[0,0.5],[1,0.5]];portConstraint=eastwest;rotatable=0;whiteSpace=wrap;html=1;" vertex="1" parent="yQLUCkZRIKrmV6NLwZtg-31">
          <mxGeometry y="60" width="140" height="30" as="geometry" />
        </mxCell>
        <mxCell id="yQLUCkZRIKrmV6NLwZtg-34" value="# Kategorie: Enum" style="text;strokeColor=none;fillColor=none;align=left;verticalAlign=middle;spacingLeft=4;spacingRight=4;overflow=hidden;points=[[0,0.5],[1,0.5]];portConstraint=eastwest;rotatable=0;whiteSpace=wrap;html=1;" vertex="1" parent="yQLUCkZRIKrmV6NLwZtg-31">
          <mxGeometry y="90" width="140" height="30" as="geometry" />
        </mxCell>
        <mxCell id="yQLUCkZRIKrmV6NLwZtg-35" value="Serie" style="swimlane;fontStyle=0;childLayout=stackLayout;horizontal=1;startSize=30;horizontalStack=0;resizeParent=1;resizeParentMax=0;resizeLast=0;collapsible=1;marginBottom=0;whiteSpace=wrap;html=1;" vertex="1" parent="1">
          <mxGeometry x="920" y="370" width="140" height="120" as="geometry" />
        </mxCell>
        <mxCell id="yQLUCkZRIKrmV6NLwZtg-36" value="Item 1" style="text;strokeColor=none;fillColor=none;align=left;verticalAlign=middle;spacingLeft=4;spacingRight=4;overflow=hidden;points=[[0,0.5],[1,0.5]];portConstraint=eastwest;rotatable=0;whiteSpace=wrap;html=1;" vertex="1" parent="yQLUCkZRIKrmV6NLwZtg-35">
          <mxGeometry y="30" width="140" height="30" as="geometry" />
        </mxCell>
        <mxCell id="yQLUCkZRIKrmV6NLwZtg-37" value="Item 2" style="text;strokeColor=none;fillColor=none;align=left;verticalAlign=middle;spacingLeft=4;spacingRight=4;overflow=hidden;points=[[0,0.5],[1,0.5]];portConstraint=eastwest;rotatable=0;whiteSpace=wrap;html=1;" vertex="1" parent="yQLUCkZRIKrmV6NLwZtg-35">
          <mxGeometry y="60" width="140" height="30" as="geometry" />
        </mxCell>
        <mxCell id="yQLUCkZRIKrmV6NLwZtg-38" value="Item 3" style="text;strokeColor=none;fillColor=none;align=left;verticalAlign=middle;spacingLeft=4;spacingRight=4;overflow=hidden;points=[[0,0.5],[1,0.5]];portConstraint=eastwest;rotatable=0;whiteSpace=wrap;html=1;" vertex="1" parent="yQLUCkZRIKrmV6NLwZtg-35">
          <mxGeometry y="90" width="140" height="30" as="geometry" />
        </mxCell>
        <mxCell id="yQLUCkZRIKrmV6NLwZtg-39" value="" style="endArrow=classic;html=1;rounded=0;exitX=0.5;exitY=0;exitDx=0;exitDy=0;entryX=0.421;entryY=1.167;entryDx=0;entryDy=0;entryPerimeter=0;" edge="1" parent="1" source="yQLUCkZRIKrmV6NLwZtg-27" target="yQLUCkZRIKrmV6NLwZtg-34">
          <mxGeometry width="50" height="50" relative="1" as="geometry">
            <mxPoint x="570" y="280" as="sourcePoint" />
            <mxPoint x="800" y="330" as="targetPoint" />
          </mxGeometry>
        </mxCell>
        <mxCell id="yQLUCkZRIKrmV6NLwZtg-40" value="" style="endArrow=classic;html=1;rounded=0;exitX=0.5;exitY=0;exitDx=0;exitDy=0;entryX=0.529;entryY=1.1;entryDx=0;entryDy=0;entryPerimeter=0;" edge="1" parent="1" source="yQLUCkZRIKrmV6NLwZtg-35" target="yQLUCkZRIKrmV6NLwZtg-34">
          <mxGeometry width="50" height="50" relative="1" as="geometry">
            <mxPoint x="570" y="280" as="sourcePoint" />
            <mxPoint x="840" y="330" as="targetPoint" />
            <Array as="points">
              <mxPoint x="960" y="320" />
            </Array>
          </mxGeometry>
        </mxCell>
        <mxCell id="yQLUCkZRIKrmV6NLwZtg-43" value="" style="endArrow=classic;html=1;rounded=0;exitX=1.007;exitY=0.125;exitDx=0;exitDy=0;exitPerimeter=0;entryX=0.5;entryY=0;entryDx=0;entryDy=0;" edge="1" parent="1" source="yQLUCkZRIKrmV6NLwZtg-35" target="yQLUCkZRIKrmV6NLwZtg-35">
          <mxGeometry width="50" height="50" relative="1" as="geometry">
            <mxPoint x="770" y="280" as="sourcePoint" />
            <mxPoint x="970" y="330" as="targetPoint" />
            <Array as="points">
              <mxPoint x="1061" y="320" />
              <mxPoint x="1000" y="320" />
            </Array>
          </mxGeometry>
        </mxCell>
        <mxCell id="yQLUCkZRIKrmV6NLwZtg-44" value="0 - 1 next" style="text;html=1;align=center;verticalAlign=middle;whiteSpace=wrap;rounded=0;" vertex="1" parent="1">
          <mxGeometry x="1000" y="330" width="60" height="30" as="geometry" />
        </mxCell>
        <mxCell id="yQLUCkZRIKrmV6NLwZtg-45" value="" style="endArrow=classic;html=1;rounded=0;exitX=0.307;exitY=0;exitDx=0;exitDy=0;entryX=0.5;entryY=0;entryDx=0;entryDy=0;exitPerimeter=0;" edge="1" parent="1" source="yQLUCkZRIKrmV6NLwZtg-35" target="yQLUCkZRIKrmV6NLwZtg-27">
          <mxGeometry width="50" height="50" relative="1" as="geometry">
            <mxPoint x="770" y="280" as="sourcePoint" />
            <mxPoint x="780" y="340" as="targetPoint" />
            <Array as="points">
              <mxPoint x="870" y="350" />
            </Array>
          </mxGeometry>
        </mxCell>
        <mxCell id="yQLUCkZRIKrmV6NLwZtg-53" value="" style="endArrow=open;endFill=0;endSize=12;html=1;rounded=0;entryX=0;entryY=0;entryDx=0;entryDy=0;startArrow=open;startFill=0;exitX=1;exitY=0;exitDx=0;exitDy=0;targetPerimeterSpacing=12;sourcePerimeterSpacing=6;" edge="1" parent="1" target="yQLUCkZRIKrmV6NLwZtg-31">
          <mxGeometry width="160" relative="1" as="geometry">
            <mxPoint x="560" y="120" as="sourcePoint" />
            <mxPoint x="740" y="140" as="targetPoint" />
          </mxGeometry>
        </mxCell>
        <mxCell id="yQLUCkZRIKrmV6NLwZtg-55" value="Watchlist" style="text;html=1;align=center;verticalAlign=middle;whiteSpace=wrap;rounded=0;" vertex="1" parent="1">
          <mxGeometry x="630" y="90" width="60" height="30" as="geometry" />
        </mxCell>
        <mxCell id="yQLUCkZRIKrmV6NLwZtg-57" value="&lt;p style=&quot;margin:0px;margin-top:4px;text-align:center;&quot;&gt;&lt;b&gt;Account&lt;/b&gt;&lt;/p&gt;&lt;hr size=&quot;1&quot; style=&quot;border-style:solid;&quot;&gt;&lt;p style=&quot;margin:0px;margin-left:4px;&quot;&gt;- email String&lt;br&gt;&lt;/p&gt;&lt;p style=&quot;margin:0px;margin-left:4px;&quot;&gt;- Passwort: String&lt;br&gt;&lt;/p&gt;&lt;p style=&quot;margin:0px;margin-left:4px;&quot;&gt;- Zahlungsmittel: String&lt;br&gt;&lt;/p&gt;&lt;p style=&quot;margin:0px;margin-left:4px;&quot;&gt;- abo Status: ENUM&lt;br&gt;&lt;/p&gt;&lt;p style=&quot;margin:0px;margin-left:4px;&quot;&gt;- Benutzername: String&lt;br&gt;&lt;/p&gt;&lt;p style=&quot;margin:0px;margin-left:4px;&quot;&gt;- erstellungsdatum: Datum&lt;br&gt;&lt;/p&gt;&lt;p style=&quot;margin:0px;margin-left:4px;&quot;&gt;- geburtsDatum: Datum&lt;br&gt;&lt;/p&gt;&lt;p style=&quot;margin:0px;margin-left:4px;&quot;&gt;- Kids Account: boolean&lt;/p&gt;&lt;hr size=&quot;1&quot; style=&quot;border-style:solid;&quot;&gt;&lt;p style=&quot;margin:0px;margin-left:4px;&quot;&gt;+ getAccountAge(): int&lt;/p&gt;&lt;p style=&quot;margin:0px;margin-left:4px;&quot;&gt;+ changePW(oldPW:String, newPW: String): Boolean&lt;/p&gt;&lt;p style=&quot;margin:0px;margin-left:4px;&quot;&gt;+Account(email: String, password: String)&amp;nbsp;&lt;/p&gt;&lt;p style=&quot;margin:0px;margin-left:4px;&quot;&gt;&lt;br&gt;&lt;/p&gt;" style="verticalAlign=top;align=left;overflow=fill;html=1;whiteSpace=wrap;" vertex="1" parent="1">
          <mxGeometry x="400" y="120" width="160" height="240" as="geometry" />
        </mxCell>
      </root>
    </mxGraphModel>
  </diagram>
</mxfile>
